<svg width="211" height="37" viewBox="0 0 211 37" fill="none" xmlns="http://www.w3.org/2000/svg">
<path d="M1.32293 33.6616C0.583701 34.0355 0.287567 34.9379 0.6615 35.6771C1.03543 36.4164 1.93783 36.7125 2.67707 36.3386L1.32293 33.6616ZM211 35.0001L202.243 20.0562L193.68 35.1118L211 35.0001ZM2 35.0001L2.67707 36.3386C6.92506 34.1898 11.0711 32.1499 15.1228 30.2175L14.4771 28.8636L13.8314 27.5097C9.75708 29.4528 5.59004 31.5031 1.32293 33.6616L2 35.0001ZM39.8276 17.6938L40.3843 19.0866C49.5112 15.4381 58.1516 12.4371 66.42 10.062L66.0058 8.62029L65.5917 7.17859C57.2125 9.58555 48.4763 12.621 39.2708 16.301L39.8276 17.6938ZM93.0885 2.87746L93.2816 4.36497C102.696 3.14252 111.74 2.84961 120.634 3.44741L120.735 1.95079L120.835 0.454166C111.737 -0.157408 102.496 0.143375 92.8953 1.38994L93.0885 2.87746ZM148.016 6.57129L147.626 8.01962C156.106 10.3048 164.667 13.3817 173.505 17.2244L174.103 15.8488L174.701 14.4732C165.751 10.5817 157.05 7.45227 148.407 5.12296L148.016 6.57129ZM198.935 28.1443L198.214 29.4598C198.324 29.5198 198.433 29.5799 198.543 29.6401L199.265 28.3253L199.987 27.0105C199.876 26.9498 199.766 26.8893 199.656 26.8288L198.935 28.1443Z" fill="#2BA84A"/>
</svg>
