<svg width="84" height="84" viewBox="0 0 84 84" fill="none" xmlns="http://www.w3.org/2000/svg">
<path d="M42 0.333496C19 0.333496 0.333374 19.0002 0.333374 42.0002C0.333374 65.0002 19 83.6668 42 83.6668C65 83.6668 83.6667 65.0002 83.6667 42.0002C83.6667 19.0002 65 0.333496 42 0.333496ZM61.3334 28.6668C60.7084 35.2502 58 51.2502 56.625 58.6252C56.0417 61.7502 54.875 62.7918 53.7917 62.9168C51.375 63.1252 49.5417 61.3335 47.2084 59.7918C43.5417 57.3752 41.4584 55.8752 37.9167 53.5418C33.7917 50.8335 36.4584 49.3335 38.8334 46.9168C39.4584 46.2918 50.125 36.5835 50.3334 35.7085C50.3623 35.576 50.3585 35.4384 50.3222 35.3077C50.2859 35.177 50.2182 35.0571 50.125 34.9585C49.875 34.7502 49.5417 34.8335 49.25 34.8752C48.875 34.9585 43.0417 38.8335 31.6667 46.5002C30 47.6252 28.5 48.2085 27.1667 48.1668C25.6667 48.1252 22.8334 47.3335 20.7084 46.6252C18.0834 45.7918 16.0417 45.3335 16.2084 43.8752C16.2917 43.1252 17.3334 42.3752 19.2917 41.5835C31.4584 36.2918 39.5417 32.7918 43.5834 31.1252C55.1667 26.2918 57.5417 25.4585 59.125 25.4585C59.4584 25.4585 60.25 25.5418 60.75 25.9585C61.1667 26.2918 61.2917 26.7502 61.3334 27.0835C61.2917 27.3335 61.375 28.0835 61.3334 28.6668Z" fill="#F8F9FA"/>
</svg>
